<svg xmlns="http://www.w3.org/2000/svg" xmlns:xlink="http://www.w3.org/1999/xlink" version="1.1" x="0px" y="0px" viewBox="0 0 100 100" xml:space="preserve">
    <path fill="#000000" d="M56.99,20.124L53.686,7.685c-0.391-1.487-1.93-2.598-3.771-2.598c-1.841,0-3.379,1.111-3.771,2.598  L42.84,20.124c0,0,0.02,0.009,0.051,0.022l-0.051-0.005c0,0-11.077,35.951-7.429,44.729c0.004,0.009,0.008,0.018,0.012,0.027  c-0.003,0.041,0.329,1.13,0.329,1.13l6.429,14.816l-0.011,0.009c0.055,0.165,0.085,0.34,0.085,0.523  c0,0.314-0.088,0.606-0.239,0.857l0.015,0.009l-4.129,7.572l0.002,0.004c-0.212,0.28-0.343,0.625-0.343,1.003  c0,4.206,24.726,4.408,24.726,0c0-0.474-0.2-0.899-0.518-1.203l0-0.002l-3.913-7.38l0.022-0.015  c-0.147-0.248-0.232-0.536-0.232-0.846c0-0.223,0.045-0.436,0.124-0.63l-0.008-0.006c0,0,6.602-15.169,6.648-15.455  c0.064-0.136,0.128-0.272,0.187-0.414C68.247,56.092,56.99,20.124,56.99,20.124z M50.038,27.949c2.571,0,4.655,2.262,4.655,5.053  c0,2.79-2.084,5.053-4.655,5.053c-2.571,0-4.655-2.262-4.655-5.053C45.383,30.211,47.467,27.949,50.038,27.949z M60.405,65.697  c-14.675,4.305-22.733-1.445-22.733-1.445c-0.476-1.059-0.921-2.278-0.46-3.344c0.563-1.3,2.217-1.744,3.64-1.677  c1.423,0.068,2.855,0.477,4.254,0.206c1.699-0.33,3.162-1.809,3.272-3.525c0.101-1.579-1.165-2.89-1.54-4.43  c-2.31-9.476,9.117-8.47,8.627-2.822c-0.158,1.822-2.147,3.159-2.054,4.986c0.072,1.396,1.483,2.355,2.845,2.71  c1.361,0.355,2.828,0.348,4.103,0.939c1.595,0.74,2.69,2.438,2.699,4.186C63.067,63.23,61.991,64.939,60.405,65.697z"/>
</svg>
